<svg width="111" height="50" viewBox="0 0 111 50" fill="none" xmlns="http://www.w3.org/2000/svg">
<path d="M65.2892 28H62.8544L62.0859 25.4681H58.2032L57.4348 28H55L58.7533 17.3145H61.5116L65.2892 28ZM58.7695 23.5753H61.544L60.3387 19.6845C60.2524 19.3933 60.1877 19.1534 60.1446 18.9646C59.999 19.547 59.5406 21.0839 58.7695 23.5753ZM71.716 25.7108C71.9856 25.2848 72.1204 24.6781 72.1204 23.8908C72.1204 23.1035 71.9856 22.5076 71.716 22.1031C71.4517 21.6933 71.0608 21.4884 70.5431 21.4884C70.0308 21.4884 69.6479 21.6582 69.3944 21.998C69.141 22.3377 69.0089 22.8932 68.9981 23.6643V23.8989C68.9981 24.7671 69.1275 25.3927 69.3863 25.7755C69.6452 26.1584 70.0577 26.3498 70.624 26.3498C71.0877 26.3498 71.4517 26.1368 71.716 25.7108ZM68.9981 20.9141C69.5265 20.1105 70.2842 19.7088 71.2711 19.7088C72.2633 19.7088 73.0291 20.0863 73.5683 20.8413C74.113 21.5908 74.3853 22.6262 74.3853 23.9474C74.3853 25.2686 74.1049 26.2986 73.5441 27.0374C72.9832 27.7762 72.2202 28.1456 71.2549 28.1456C70.2896 28.1456 69.5373 27.7978 68.9981 27.1021H68.8525L68.4804 28H66.7817V16.6754H68.9981V19.3043C68.9981 19.6764 68.9711 20.213 68.9172 20.9141H68.9981ZM83.2611 28H81.708L81.2793 26.8918H81.2227C80.8452 27.3664 80.4596 27.6953 80.066 27.8787C79.6723 28.0566 79.1573 28.1456 78.521 28.1456C77.7337 28.1456 77.1162 27.9218 76.6686 27.4742C76.221 27.0212 75.9972 26.3768 75.9972 25.541C75.9972 24.7051 76.2938 24.0795 76.887 23.6643C77.4856 23.2491 78.4023 23.0199 79.6373 22.9767L81.0528 22.9363V22.5804C81.0528 21.7553 80.6295 21.3428 79.7829 21.3428C79.1411 21.3428 78.3781 21.5369 77.4937 21.9252L76.7576 20.4287C77.6905 19.938 78.7178 19.6926 79.8395 19.6926C80.9666 19.6926 81.8186 19.9353 82.3956 20.4206C82.9726 20.9006 83.2611 21.6205 83.2611 22.5804V28ZM81.0528 24.9019V24.2305L80.1954 24.2548C79.5429 24.2764 79.0603 24.395 78.7475 24.6107C78.4347 24.821 78.2783 25.1446 78.2783 25.5814C78.2783 26.2069 78.6369 26.5197 79.3542 26.5197C79.8718 26.5197 80.2844 26.3741 80.5918 26.0829C80.8991 25.7863 81.0528 25.3927 81.0528 24.9019ZM89.1676 28.1456C86.633 28.1456 85.3658 26.7543 85.3658 23.9717C85.3658 22.5912 85.7082 21.5369 86.3931 20.8089C87.0833 20.0755 88.0729 19.7088 89.3617 19.7088C90.2893 19.7088 91.1332 19.8921 91.8936 20.2588L91.2384 21.9818C90.4349 21.6582 89.8093 21.4965 89.3617 21.4965C88.2077 21.4965 87.6307 22.3054 87.6307 23.9232C87.6307 25.541 88.2077 26.3498 89.3617 26.3498C90.1652 26.3498 90.9256 26.1126 91.6428 25.638V27.5389C91.2923 27.7654 90.9337 27.9218 90.567 28.0081C90.2057 28.0998 89.7392 28.1456 89.1676 28.1456ZM101.317 28H99.6185L99.3192 26.9565H99.1979C98.9606 27.3394 98.6236 27.6333 98.1868 27.8382C97.7499 28.0431 97.2538 28.1456 96.6984 28.1456C95.7493 28.1456 95.0294 27.8921 94.5386 27.3852C94.0533 26.8729 93.8106 26.1341 93.8106 25.1689V19.8625H96.027V24.6188C96.027 25.2066 96.1322 25.6461 96.3425 25.9373C96.5528 26.2285 96.8844 26.3741 97.3374 26.3741C97.9576 26.3741 98.4052 26.1692 98.6802 25.7594C98.9606 25.3441 99.1008 24.6539 99.1008 23.6886V19.8625H101.317V28ZM108.781 23.7776C109.358 24.2144 109.646 24.8345 109.646 25.638C109.646 26.4415 109.355 27.0617 108.773 27.4985C108.19 27.9299 107.352 28.1456 106.257 28.1456C105.168 28.1456 104.246 27.9892 103.491 27.6764V25.8402C103.906 26.0344 104.37 26.1962 104.882 26.3256C105.4 26.455 105.855 26.5197 106.249 26.5197C107.053 26.5197 107.454 26.2878 107.454 25.8241C107.454 25.5922 107.346 25.4034 107.131 25.2578C106.915 25.1122 106.465 24.8911 105.78 24.5945C105.1 24.2979 104.61 24.0391 104.308 23.818C104.016 23.5915 103.803 23.3354 103.669 23.0495C103.539 22.7583 103.475 22.4024 103.475 21.9818C103.475 21.2592 103.755 20.701 104.316 20.3074C104.877 19.9083 105.659 19.7088 106.662 19.7088C107.67 19.7088 108.635 19.9218 109.557 20.3478L108.886 21.9494C108.417 21.7499 108.012 21.6016 107.673 21.5045C107.338 21.4021 107.001 21.3509 106.662 21.3509C106.004 21.3509 105.675 21.5288 105.675 21.8847C105.675 22.0843 105.785 22.2595 106.006 22.4105C106.227 22.5615 106.667 22.7691 107.325 23.0334C107.988 23.2976 108.473 23.5457 108.781 23.7776Z" fill="#071E43"/>
<circle cx="25" cy="25" r="25" fill="#071D43"/>
<circle cx="14.5" cy="24.5" r="3.5" fill="white"/>
<circle cx="14.5" cy="35.5" r="3.5" fill="white"/>
<circle cx="25.5" cy="24.5" r="3.5" fill="white"/>
<circle cx="25.5" cy="13.5" r="3.5" fill="white"/>
<circle cx="25.5" cy="36.5" r="3.5" fill="white"/>
<circle cx="35.5" cy="13.5" r="3.5" fill="white"/>
<circle cx="35.5" cy="24.5" r="3.5" fill="white"/>
<line x1="14.5" y1="2" x2="14.5" y2="48" stroke="#FFFEFE"/>
<path d="M25.5 0L25.5 50" stroke="#FFFEFE"/>
<line x1="35.5" y1="2" x2="35.5" y2="48" stroke="white"/>
</svg>
